<svg width="50" height="48" viewBox="0 0 50 48" fill="none" xmlns="http://www.w3.org/2000/svg">
<path fill-rule="evenodd" clip-rule="evenodd" d="M24.6857 48C38.3193 48 49.3714 37.2548 49.3714 24C49.3714 10.7452 38.3193 0 24.6857 0C11.0522 0 0 10.7452 0 24C0 37.2548 11.0522 48 24.6857 48Z" fill="#EFF2F6"/>
<g clip-path="url(#clip0_67_982)">
<path d="M32.8574 13V16H35.8574V18H32.8574V21H30.8574V18H27.8574V16H30.8574V13H32.8574ZM24.8574 25C25.9574 25 26.8574 24.1 26.8574 23C26.8574 21.9 25.9574 21 24.8574 21C23.7574 21 22.8574 21.9 22.8574 23C22.8574 24.1 23.7574 25 24.8574 25ZM26.8574 15.25V19H29.8574V22H32.7774C32.8274 22.39 32.8574 22.79 32.8574 23.2C32.8574 26.52 30.1874 30.45 24.8574 35C19.5274 30.45 16.8574 26.52 16.8574 23.2C16.8574 18.22 20.6574 15 24.8574 15C25.5374 15 26.2074 15.08 26.8574 15.25Z" fill="#323232"/>
</g>
<defs>
<clipPath id="clip0_67_982">
<rect width="24" height="24" fill="white" transform="translate(12.8574 12)"/>
</clipPath>
</defs>
</svg>
